# xmcd CD database file
#
# Track frame offsets:
#	150
#	19317
#	33642
#	57545
#	76810
#	91272
#
# Disc length: 1532 seconds
#
# Revision: 0
# Processed by: cddbd v1.5.1PL0 Copyright (c) Steve Scherf et al.
# Submitted via: CDex 1.51
#
DISCID=4505fa06
DTITLE=氷上恭子 - Beautiful days
DYEAR=2002
DGENRE=Pop
TTITLE0=Beautiful days
TTITLE1=心を教えて
TTITLE2=風のうた
TTITLE3=Beautiful days (off vocal ver.)
TTITLE4=心を教えて (off vocal ver.)
TTITLE5=風のうた (off vocal ver.)
EXTD=YEAR: 2002
EXTT0=
EXTT1=
EXTT2=
EXTT3=
EXTT4=
EXTT5=
PLAYORDER=
